<?xml version="1.0" encoding="UTF-8" standalone="no"?>
<!DOCTYPE svg PUBLIC "-//W3C//DTD SVG 1.1//EN" "http://www.w3.org/Graphics/SVG/1.1/DTD/svg11.dtd">
<svg width="100%" height="100%" viewBox="0 0 12 12" version="1.1" xmlns="http://www.w3.org/2000/svg" xmlns:xlink="http://www.w3.org/1999/xlink" xml:space="preserve"  style="fill-rule:evenodd;clip-rule:evenodd;stroke-linejoin:round;stroke-miterlimit:1.41421;">
    <rect id="combined-curves" x="0" y="0" width="12" height="12" style="fill:none;"/>
    <path d="M12,12L0,12L0,0L12,0L12,12ZM11.241,0.717L0.728,0.717L0.728,11.245L11.241,11.245L11.241,0.717ZM3.055,6.222L3.066,8.126L1.524,8.139L1.526,1.526C1.526,1.526 4.375,1.561 4.596,1.564C4.681,1.565 4.766,1.575 4.849,1.594C6.127,1.91 6.69,3.111 6.522,4.221L10.478,4.221L10.465,5.791L7.365,5.791L7.365,6.585L10.49,6.585L10.49,8.122L7.378,8.147L7.34,8.96L10.44,8.947L10.49,10.472L5.791,10.484L5.791,5.632C5.496,5.906 5.115,6.116 4.647,6.222L3.055,6.222ZM3.371,2.893C3.23,2.957 3.113,3.065 3.038,3.201C2.788,3.606 2.794,4.037 2.976,4.46C3.049,4.629 3.181,4.766 3.347,4.846C3.727,5.009 4.086,4.995 4.434,4.795C4.565,4.719 4.665,4.6 4.718,4.458C4.864,4.078 4.841,3.701 4.71,3.318C4.644,3.131 4.506,2.978 4.326,2.894C3.998,2.753 3.697,2.733 3.371,2.893Z" style="fill:#e7ff89;"/>
</svg>
